<svg xmlns="http://www.w3.org/2000/svg" viewBox="0 0 1200 230" width="1200" height="230" role="img" aria-label="Tech stack. Generative AI: Azure OpenAI, GPT models, Multi-LLM orchestration, AI agents, Prompt engineering, Document Q&amp;A. Data &amp; ML: Python, Forecasting, Business analytics, Dashboards. Web: React, JavaScript, HTML &amp; CSS, REST APIs. Cloud &amp; delivery: Microsoft Azure, Production rollout, Security governance, ROI evaluation.">
<defs>
<style>
  text { font-family: -apple-system, BlinkMacSystemFont, 'Segoe UI', 'Helvetica Neue', Arial, sans-serif; }
  .card { fill: #FFFFFF; stroke: #E5E7EB; }
  .ink { fill: #111827; }
  .muted { fill: #4B5563; }
  .faint { stroke: #E5E7EB; }
  .pill { fill: #F3F4F8; }
  .bg-dot { fill: #CBD5E1; }
  @media (prefers-color-scheme: dark) {
    .card { fill: #0D1117; stroke: #262C36; }
    .ink { fill: #F0F6FC; }
    .muted { fill: #9198A1; }
    .faint { stroke: #262C36; }
    .pill { fill: #161B22; }
    .bg-dot { fill: #30363D; }
  }
  @media (prefers-reduced-motion: reduce) { * { animation: none !important; } }
</style>
<linearGradient id="brand" x1="0" y1="0" x2="1" y2="0">
  <stop offset="0%" stop-color="#6366F1"/><stop offset="100%" stop-color="#A855F7"/>
</linearGradient>

</defs>
<rect x="1" y="1" width="1198" height="228" rx="18" class="card" stroke-width="1.5"/><g transform="translate(0,6)"><circle cx="46" cy="29" r="5" fill="#8B5CF6"/><text x="62" y="34" font-size="15" font-weight="700" class="ink">Generative AI</text><g transform="translate(250,16)"><rect width="108" height="26" rx="13" class="pill" stroke="#8B5CF6" stroke-opacity="0.45"/><text x="54" y="17.5" text-anchor="middle" font-size="12" font-weight="600" fill="#8B5CF6">Azure OpenAI</text></g><g transform="translate(368,16)"><rect width="94" height="26" rx="13" class="pill" stroke="#8B5CF6" stroke-opacity="0.45"/><text x="47" y="17.5" text-anchor="middle" font-size="12" font-weight="600" fill="#8B5CF6">GPT models</text></g><g transform="translate(471,16)"><rect width="184" height="26" rx="13" class="pill" stroke="#8B5CF6" stroke-opacity="0.45"/><text x="92" y="17.5" text-anchor="middle" font-size="12" font-weight="600" fill="#8B5CF6">Multi-LLM orchestration</text></g><g transform="translate(665,16)"><rect width="87" height="26" rx="13" class="pill" stroke="#8B5CF6" stroke-opacity="0.45"/><text x="43" y="17.5" text-anchor="middle" font-size="12" font-weight="600" fill="#8B5CF6">AI agents</text></g><g transform="translate(762,16)"><rect width="149" height="26" rx="13" class="pill" stroke="#8B5CF6" stroke-opacity="0.45"/><text x="75" y="17.5" text-anchor="middle" font-size="12" font-weight="600" fill="#8B5CF6">Prompt engineering</text></g><g transform="translate(921,16)"><rect width="108" height="26" rx="13" class="pill" stroke="#8B5CF6" stroke-opacity="0.45"/><text x="54" y="17.5" text-anchor="middle" font-size="12" font-weight="600" fill="#8B5CF6">Document Q&amp;A</text></g></g><g transform="translate(0,6)"><circle cx="46" cy="83" r="5" fill="#22D3EE"/><text x="62" y="88" font-size="15" font-weight="700" class="ink">Data &amp; ML</text><g transform="translate(250,70)"><rect width="66" height="26" rx="13" class="pill" stroke="#22D3EE" stroke-opacity="0.45"/><text x="33" y="17.5" text-anchor="middle" font-size="12" font-weight="600" fill="#22D3EE">Python</text></g><g transform="translate(326,70)"><rect width="101" height="26" rx="13" class="pill" stroke="#22D3EE" stroke-opacity="0.45"/><text x="50" y="17.5" text-anchor="middle" font-size="12" font-weight="600" fill="#22D3EE">Forecasting</text></g><g transform="translate(436,70)"><rect width="149" height="26" rx="13" class="pill" stroke="#22D3EE" stroke-opacity="0.45"/><text x="75" y="17.5" text-anchor="middle" font-size="12" font-weight="600" fill="#22D3EE">Business analytics</text></g><g transform="translate(596,70)"><rect width="94" height="26" rx="13" class="pill" stroke="#22D3EE" stroke-opacity="0.45"/><text x="47" y="17.5" text-anchor="middle" font-size="12" font-weight="600" fill="#22D3EE">Dashboards</text></g></g><g transform="translate(0,6)"><circle cx="46" cy="137" r="5" fill="#F97316"/><text x="62" y="142" font-size="15" font-weight="700" class="ink">Web</text><g transform="translate(250,124)"><rect width="59" height="26" rx="13" class="pill" stroke="#F97316" stroke-opacity="0.45"/><text x="29" y="17.5" text-anchor="middle" font-size="12" font-weight="600" fill="#F97316">React</text></g><g transform="translate(319,124)"><rect width="94" height="26" rx="13" class="pill" stroke="#F97316" stroke-opacity="0.45"/><text x="47" y="17.5" text-anchor="middle" font-size="12" font-weight="600" fill="#F97316">JavaScript</text></g><g transform="translate(422,124)"><rect width="94" height="26" rx="13" class="pill" stroke="#F97316" stroke-opacity="0.45"/><text x="47" y="17.5" text-anchor="middle" font-size="12" font-weight="600" fill="#F97316">HTML &amp; CSS</text></g><g transform="translate(526,124)"><rect width="87" height="26" rx="13" class="pill" stroke="#F97316" stroke-opacity="0.45"/><text x="43" y="17.5" text-anchor="middle" font-size="12" font-weight="600" fill="#F97316">REST APIs</text></g></g><g transform="translate(0,6)"><circle cx="46" cy="191" r="5" fill="#10B981"/><text x="62" y="196" font-size="15" font-weight="700" class="ink">Cloud &amp; delivery</text><g transform="translate(250,178)"><rect width="128" height="26" rx="13" class="pill" stroke="#10B981" stroke-opacity="0.45"/><text x="64" y="17.5" text-anchor="middle" font-size="12" font-weight="600" fill="#10B981">Microsoft Azure</text></g><g transform="translate(388,178)"><rect width="149" height="26" rx="13" class="pill" stroke="#10B981" stroke-opacity="0.45"/><text x="75" y="17.5" text-anchor="middle" font-size="12" font-weight="600" fill="#10B981">Production rollout</text></g><g transform="translate(548,178)"><rect width="156" height="26" rx="13" class="pill" stroke="#10B981" stroke-opacity="0.45"/><text x="78" y="17.5" text-anchor="middle" font-size="12" font-weight="600" fill="#10B981">Security governance</text></g><g transform="translate(714,178)"><rect width="121" height="26" rx="13" class="pill" stroke="#10B981" stroke-opacity="0.45"/><text x="61" y="17.5" text-anchor="middle" font-size="12" font-weight="600" fill="#10B981">ROI evaluation</text></g></g>
</svg>
